<svg xmlns="http://www.w3.org/2000/svg" viewBox="0 0 300 55">
  <defs>
    <radialGradient id="pg" cx="35%" cy="30%" r="65%">
      <stop offset="0%" stop-color="white"/>
      <stop offset="60%" stop-color="#f5f0e8"/>
      <stop offset="100%" stop-color="#cdc8c0"/>
    </radialGradient>
  </defs>
  <circle cx="20.0" cy="25.0" r="8" fill="url(#pg)" stroke="rgba(255,255,255,0.3)" stroke-width="0.5"/>
    <ellipse cx="17.5" cy="22.5" rx="2.5" ry="2" fill="white" opacity="0.5"/><circle cx="37.3" cy="28.1" r="8" fill="url(#pg)" stroke="rgba(255,255,255,0.3)" stroke-width="0.5"/>
    <ellipse cx="34.8" cy="25.6" rx="2.5" ry="2" fill="white" opacity="0.5"/><circle cx="54.7" cy="31.1" r="8" fill="url(#pg)" stroke="rgba(255,255,255,0.3)" stroke-width="0.5"/>
    <ellipse cx="52.2" cy="28.6" rx="2.5" ry="2" fill="white" opacity="0.5"/><circle cx="72.0" cy="33.8" r="8" fill="url(#pg)" stroke="rgba(255,255,255,0.3)" stroke-width="0.5"/>
    <ellipse cx="69.5" cy="31.3" rx="2.5" ry="2" fill="white" opacity="0.5"/><circle cx="89.3" cy="36.1" r="8" fill="url(#pg)" stroke="rgba(255,255,255,0.3)" stroke-width="0.5"/>
    <ellipse cx="86.8" cy="33.6" rx="2.5" ry="2" fill="white" opacity="0.5"/><circle cx="106.7" cy="38.0" r="8" fill="url(#pg)" stroke="rgba(255,255,255,0.3)" stroke-width="0.5"/>
    <ellipse cx="104.2" cy="35.5" rx="2.5" ry="2" fill="white" opacity="0.5"/><circle cx="124.0" cy="39.3" r="8" fill="url(#pg)" stroke="rgba(255,255,255,0.3)" stroke-width="0.5"/>
    <ellipse cx="121.5" cy="36.8" rx="2.5" ry="2" fill="white" opacity="0.5"/><circle cx="141.3" cy="39.9" r="8" fill="url(#pg)" stroke="rgba(255,255,255,0.3)" stroke-width="0.5"/>
    <ellipse cx="138.8" cy="37.4" rx="2.5" ry="2" fill="white" opacity="0.5"/><circle cx="158.7" cy="39.9" r="8" fill="url(#pg)" stroke="rgba(255,255,255,0.3)" stroke-width="0.5"/>
    <ellipse cx="156.2" cy="37.4" rx="2.5" ry="2" fill="white" opacity="0.5"/><circle cx="176.0" cy="39.3" r="8" fill="url(#pg)" stroke="rgba(255,255,255,0.3)" stroke-width="0.5"/>
    <ellipse cx="173.5" cy="36.8" rx="2.5" ry="2" fill="white" opacity="0.5"/><circle cx="193.3" cy="38.0" r="8" fill="url(#pg)" stroke="rgba(255,255,255,0.3)" stroke-width="0.5"/>
    <ellipse cx="190.8" cy="35.5" rx="2.5" ry="2" fill="white" opacity="0.5"/><circle cx="210.7" cy="36.1" r="8" fill="url(#pg)" stroke="rgba(255,255,255,0.3)" stroke-width="0.5"/>
    <ellipse cx="208.2" cy="33.6" rx="2.5" ry="2" fill="white" opacity="0.5"/><circle cx="228.0" cy="33.8" r="8" fill="url(#pg)" stroke="rgba(255,255,255,0.3)" stroke-width="0.5"/>
    <ellipse cx="225.5" cy="31.3" rx="2.5" ry="2" fill="white" opacity="0.5"/><circle cx="245.3" cy="31.1" r="8" fill="url(#pg)" stroke="rgba(255,255,255,0.3)" stroke-width="0.5"/>
    <ellipse cx="242.8" cy="28.6" rx="2.5" ry="2" fill="white" opacity="0.5"/><circle cx="262.7" cy="28.1" r="8" fill="url(#pg)" stroke="rgba(255,255,255,0.3)" stroke-width="0.5"/>
    <ellipse cx="260.2" cy="25.6" rx="2.5" ry="2" fill="white" opacity="0.5"/><circle cx="280.0" cy="25.0" r="8" fill="url(#pg)" stroke="rgba(255,255,255,0.3)" stroke-width="0.5"/>
    <ellipse cx="277.5" cy="22.5" rx="2.5" ry="2" fill="white" opacity="0.5"/>
</svg>