<svg xmlns="http://www.w3.org/2000/svg" viewBox="0 0 300 32" width="300" height="32">
  <defs>
    <radialGradient id="pg" cx="35%" cy="32%">
      <stop offset="0%"   stop-color="#ffffff"/>
      <stop offset="40%"  stop-color="#f0ebe0"/>
      <stop offset="100%" stop-color="#c8bfa8"/>
    </radialGradient>
  </defs>
  <!-- 진주 실 (y≈3, CHAIN_Y_FRAC=0.08) -->
  <line x1="0" y1="3" x2="300" y2="3" stroke="#d0c0a0" stroke-width="1.2"/>

  <!-- 진주 16개 (x: 10, 28, 46 ... step 18, 센터 150에서 대칭) -->
  <!-- 각 진주: 실 중심 y=3, 반지름 10 → y -7 ~ 13 -->
  <circle cx="6"   cy="16" r="10" fill="url(#pg)"/><circle cx="6"   cy="16" r="10" fill="none" stroke="#c8b898" stroke-width="0.8"/>
  <circle cx="24"  cy="16" r="10" fill="url(#pg)"/><circle cx="24"  cy="16" r="10" fill="none" stroke="#c8b898" stroke-width="0.8"/>
  <circle cx="42"  cy="16" r="10" fill="url(#pg)"/><circle cx="42"  cy="16" r="10" fill="none" stroke="#c8b898" stroke-width="0.8"/>
  <circle cx="60"  cy="16" r="10" fill="url(#pg)"/><circle cx="60"  cy="16" r="10" fill="none" stroke="#c8b898" stroke-width="0.8"/>
  <circle cx="78"  cy="16" r="10" fill="url(#pg)"/><circle cx="78"  cy="16" r="10" fill="none" stroke="#c8b898" stroke-width="0.8"/>
  <circle cx="96"  cy="16" r="10" fill="url(#pg)"/><circle cx="96"  cy="16" r="10" fill="none" stroke="#c8b898" stroke-width="0.8"/>
  <circle cx="114" cy="16" r="10" fill="url(#pg)"/><circle cx="114" cy="16" r="10" fill="none" stroke="#c8b898" stroke-width="0.8"/>
  <circle cx="132" cy="16" r="10" fill="url(#pg)"/><circle cx="132" cy="16" r="10" fill="none" stroke="#c8b898" stroke-width="0.8"/>
  <circle cx="150" cy="16" r="10" fill="url(#pg)"/><circle cx="150" cy="16" r="10" fill="none" stroke="#c8b898" stroke-width="0.8"/>
  <circle cx="168" cy="16" r="10" fill="url(#pg)"/><circle cx="168" cy="16" r="10" fill="none" stroke="#c8b898" stroke-width="0.8"/>
  <circle cx="186" cy="16" r="10" fill="url(#pg)"/><circle cx="186" cy="16" r="10" fill="none" stroke="#c8b898" stroke-width="0.8"/>
  <circle cx="204" cy="16" r="10" fill="url(#pg)"/><circle cx="204" cy="16" r="10" fill="none" stroke="#c8b898" stroke-width="0.8"/>
  <circle cx="222" cy="16" r="10" fill="url(#pg)"/><circle cx="222" cy="16" r="10" fill="none" stroke="#c8b898" stroke-width="0.8"/>
  <circle cx="240" cy="16" r="10" fill="url(#pg)"/><circle cx="240" cy="16" r="10" fill="none" stroke="#c8b898" stroke-width="0.8"/>
  <circle cx="258" cy="16" r="10" fill="url(#pg)"/><circle cx="258" cy="16" r="10" fill="none" stroke="#c8b898" stroke-width="0.8"/>
  <circle cx="276" cy="16" r="10" fill="url(#pg)"/><circle cx="276" cy="16" r="10" fill="none" stroke="#c8b898" stroke-width="0.8"/>
  <circle cx="294" cy="16" r="10" fill="url(#pg)"/><circle cx="294" cy="16" r="10" fill="none" stroke="#c8b898" stroke-width="0.8"/>

  <!-- 각 진주 하이라이트 -->
  <circle cx="2"   cy="12" r="3.5" fill="white" opacity="0.5"/>
  <circle cx="20"  cy="12" r="3.5" fill="white" opacity="0.5"/>
  <circle cx="38"  cy="12" r="3.5" fill="white" opacity="0.5"/>
  <circle cx="56"  cy="12" r="3.5" fill="white" opacity="0.5"/>
  <circle cx="74"  cy="12" r="3.5" fill="white" opacity="0.5"/>
  <circle cx="92"  cy="12" r="3.5" fill="white" opacity="0.5"/>
  <circle cx="110" cy="12" r="3.5" fill="white" opacity="0.5"/>
  <circle cx="128" cy="12" r="3.5" fill="white" opacity="0.5"/>
  <circle cx="146" cy="12" r="3.5" fill="white" opacity="0.5"/>
  <circle cx="164" cy="12" r="3.5" fill="white" opacity="0.5"/>
  <circle cx="182" cy="12" r="3.5" fill="white" opacity="0.5"/>
  <circle cx="200" cy="12" r="3.5" fill="white" opacity="0.5"/>
  <circle cx="218" cy="12" r="3.5" fill="white" opacity="0.5"/>
  <circle cx="236" cy="12" r="3.5" fill="white" opacity="0.5"/>
  <circle cx="254" cy="12" r="3.5" fill="white" opacity="0.5"/>
  <circle cx="272" cy="12" r="3.5" fill="white" opacity="0.5"/>
  <circle cx="290" cy="12" r="3.5" fill="white" opacity="0.5"/>
</svg>
